<svg width="18" height="19" viewBox="0 0 18 19" fill="none" xmlns="http://www.w3.org/2000/svg">
<path d="M1 4.33333H2.73333H16.6" stroke="black" stroke-width="1.25" stroke-linecap="round" stroke-linejoin="round"/>
<path d="M5.3334 4.33333V2.66667C5.3334 2.22464 5.51602 1.80072 5.84108 1.48815C6.16614 1.17559 6.60702 1 7.06673 1H10.5334C10.9931 1 11.434 1.17559 11.759 1.48815C12.0841 1.80072 12.2667 2.22464 12.2667 2.66667V4.33333M14.8667 4.33333V16C14.8667 16.442 14.6841 16.8659 14.359 17.1785C14.034 17.4911 13.5931 17.6667 13.1334 17.6667H4.46673C4.00702 17.6667 3.56614 17.4911 3.24108 17.1785C2.91602 16.8659 2.7334 16.442 2.7334 16V4.33333H14.8667Z" stroke="black" stroke-width="1.25" stroke-linecap="round" stroke-linejoin="round"/>
<path d="M7.06665 8.5V13.5" stroke="black" stroke-width="1.25" stroke-linecap="round" stroke-linejoin="round"/>
<path d="M10.5334 8.5V13.5" stroke="black" stroke-width="1.25" stroke-linecap="round" stroke-linejoin="round"/>
</svg>
