<svg width="16" height="16" viewBox="0 0 16 16" fill="none" xmlns="http://www.w3.org/2000/svg">
<path d="M3.73175 0.211485H7.66662L5.78903 2.17371H3.73175C3.49955 2.17388 3.26968 2.21999 3.05537 2.30938C2.84106 2.39877 2.64656 2.52967 2.48306 2.69454C2.31818 2.85804 2.18728 3.05255 2.09789 3.26685C2.00851 3.48116 1.9624 3.71103 1.96223 3.94323V13.8572H11.8762C12.1084 13.8572 12.3384 13.8112 12.5527 13.7218C12.767 13.6324 12.9615 13.5014 13.1249 13.3364C13.2899 13.173 13.4209 12.9785 13.5103 12.7642C13.5997 12.5498 13.6457 12.3199 13.6457 12.0877V10.063L15.608 8.01352V12.0877C15.6074 12.577 15.5103 13.0613 15.3224 13.5131C15.1345 13.9648 14.8595 14.3751 14.5129 14.7205V14.727C13.8157 15.4255 12.8696 15.8185 11.8827 15.8195H1.49739C1.10157 15.8187 0.722228 15.6609 0.442706 15.3807C0.302901 15.2417 0.191844 15.0766 0.115882 14.8948C0.0399199 14.7129 0.000542365 14.5179 0 14.3208L0 3.94323C0.000653233 3.45416 0.0977028 2.97002 0.285599 2.51849C0.473496 2.06696 0.748554 1.65689 1.09505 1.31174L1.10156 1.30002C1.44666 0.953918 1.85656 0.67919 2.30786 0.491523C2.75915 0.303857 3.24299 0.20693 3.73175 0.206276V0.211485ZM9.50515 9.95491L5.67444 10.7362L6.22783 6.65936L9.50515 9.95491ZM7.43876 5.42499L12.539 0.116433C12.5937 0.0563949 12.6673 0.0168308 12.7475 0.0042825C12.8278 -0.00826579 12.9099 0.0069532 12.9804 0.0474231L15.9075 2.88074C15.9388 2.91164 15.9631 2.94883 15.979 2.98985C15.9949 3.03087 16.0019 3.0748 15.9996 3.11872C15.9972 3.16264 15.9856 3.20557 15.9655 3.24468C15.9453 3.28378 15.9171 3.31817 15.8827 3.34558L10.7135 8.72185L7.43876 5.42499Z" fill="#3A3A3A"/>
</svg>
